<svg class="icon" width="40" height="40" viewBox="0 0 55 55" fill="none" xmlns="http://www.w3.org/2000/svg">
<g filter="url(#filter0_d_19_35)">
<path d="M10.5156 10C8.57313 10 7 11.575 7 13.5156V14.9219C7 16.8644 8.575 18.4375 10.5156 18.4375H42.8594C44.8 18.4375 46.375 16.8625 46.375 14.9219V13.5156C46.375 11.5731 44.8 10 42.8594 10H10.5156Z" fill="white"/>
</g>
<g filter="url(#filter1_d_19_35)">
<path fill-rule="evenodd" clip-rule="evenodd" d="M9.97562 21.25L10.9881 38.455C11.0723 39.8867 11.7 41.2321 12.7431 42.2163C13.7862 43.2005 15.1659 43.7491 16.6 43.75H36.7694C38.2041 43.7501 39.5847 43.2019 40.6286 42.2176C41.6725 41.2333 42.3008 39.8873 42.385 38.455L43.3994 21.25H9.97562ZM21.5313 28.2812C21.5313 27.9083 21.6794 27.5506 21.9431 27.2869C22.2069 27.0232 22.5645 26.875 22.9375 26.875H30.4375C30.8105 26.875 31.1681 27.0232 31.4319 27.2869C31.6956 27.5506 31.8438 27.9083 31.8438 28.2812C31.8438 28.6542 31.6956 29.0119 31.4319 29.2756C31.1681 29.5393 30.8105 29.6875 30.4375 29.6875H22.9375C22.5645 29.6875 22.2069 29.5393 21.9431 29.2756C21.6794 29.0119 21.5313 28.6542 21.5313 28.2812Z" fill="white"/>
</g>
<defs>
<filter id="filter0_d_19_35" x="3" y="10" width="47.375" height="16.4375" filterUnits="userSpaceOnUse" color-interpolation-filters="sRGB">
<feFlood flood-opacity="0" result="BackgroundImageFix"/>
<feColorMatrix in="SourceAlpha" type="matrix" values="0 0 0 0 0 0 0 0 0 0 0 0 0 0 0 0 0 0 127 0" result="hardAlpha"/>
<feOffset dy="4"/>
<feGaussianBlur stdDeviation="2"/>
<feComposite in2="hardAlpha" operator="out"/>
<feColorMatrix type="matrix" values="0 0 0 0 0 0 0 0 0 0 0 0 0 0 0 0 0 0 0.25 0"/>
<feBlend mode="normal" in2="BackgroundImageFix" result="effect1_dropShadow_19_35"/>
<feBlend mode="normal" in="SourceGraphic" in2="effect1_dropShadow_19_35" result="shape"/>
</filter>
<filter id="filter1_d_19_35" x="5.97562" y="21.25" width="41.4238" height="30.5" filterUnits="userSpaceOnUse" color-interpolation-filters="sRGB">
<feFlood flood-opacity="0" result="BackgroundImageFix"/>
<feColorMatrix in="SourceAlpha" type="matrix" values="0 0 0 0 0 0 0 0 0 0 0 0 0 0 0 0 0 0 127 0" result="hardAlpha"/>
<feOffset dy="4"/>
<feGaussianBlur stdDeviation="2"/>
<feComposite in2="hardAlpha" operator="out"/>
<feColorMatrix type="matrix" values="0 0 0 0 0 0 0 0 0 0 0 0 0 0 0 0 0 0 0.25 0"/>
<feBlend mode="normal" in2="BackgroundImageFix" result="effect1_dropShadow_19_35"/>
<feBlend mode="normal" in="SourceGraphic" in2="effect1_dropShadow_19_35" result="shape"/>
</filter>
</defs>
</svg>

