<svg width="40" height="40" viewBox="0 0 55 55" fill="none" xmlns="http://www.w3.org/2000/svg">
<g clip-path="url(#clip0_12_4)">
<g filter="url(#filter0_d_12_4)">
<path fill-rule="evenodd" clip-rule="evenodd" d="M29.7542 6.62804C29.6286 6.45979 29.4704 6.31857 29.2891 6.2128C29.1078 6.10703 28.907 6.03889 28.6987 6.01245C28.4905 5.986 28.279 6.00179 28.077 6.05888C27.875 6.11597 27.6865 6.21318 27.5229 6.34471C23.5298 9.55058 20.8962 14.1474 20.15 19.2135C18.7813 18.2199 17.5818 17.012 16.5979 15.6364C16.4642 15.4495 16.291 15.2944 16.0905 15.1822C15.89 15.0699 15.6672 15.0032 15.4381 14.9869C15.2089 14.9706 14.9789 15.0051 14.7646 15.0878C14.5502 15.1705 14.3567 15.2995 14.1979 15.4655C11.4462 18.3435 9.68207 22.0228 9.16116 25.9703C8.64025 29.9179 9.38958 33.9289 11.3006 37.4221C13.2116 40.9153 16.1851 43.7095 19.7903 45.3999C23.3955 47.0902 27.4452 47.589 31.3528 46.8239C35.2604 46.0588 38.823 44.0696 41.5245 41.1444C44.226 38.2192 45.9261 34.5099 46.3786 30.5539C46.831 26.5979 46.0124 22.6006 44.0411 19.1409C42.0699 15.6813 39.0485 12.939 35.4146 11.3114C33.1806 10.2251 31.2396 8.61908 29.7542 6.62804ZM35.5604 31.553C35.5596 32.6831 35.3137 33.7995 34.8396 34.8253C34.3655 35.8511 33.6745 36.7619 32.8142 37.4947C31.954 38.2275 30.945 38.765 29.8569 39.0701C28.7688 39.3752 27.6275 39.4405 26.5116 39.2617C25.3958 39.0829 24.3321 38.6641 23.3938 38.0343C22.4555 37.4045 21.665 36.5786 21.0769 35.6137C20.4887 34.6487 20.1169 33.5676 19.9871 32.4451C19.8573 31.3225 19.9726 30.1851 20.325 29.1114C21.6333 30.0801 23.1375 30.7989 24.7687 31.1947C25.2115 28.3433 26.6287 25.7334 28.7792 23.8093C30.6559 24.0592 32.378 24.9821 33.6254 26.4065C34.8727 27.8309 35.5603 29.6597 35.5604 31.553Z" fill="white"/>
</g>
</g>
<defs>
<filter id="filter0_d_12_4" x="5" y="6" width="45.5" height="49.1733" filterUnits="userSpaceOnUse" color-interpolation-filters="sRGB">
<feFlood flood-opacity="0" result="BackgroundImageFix"/>
<feColorMatrix in="SourceAlpha" type="matrix" values="0 0 0 0 0 0 0 0 0 0 0 0 0 0 0 0 0 0 127 0" result="hardAlpha"/>
<feOffset dy="4"/>
<feGaussianBlur stdDeviation="2"/>
<feComposite in2="hardAlpha" operator="out"/>
<feColorMatrix type="matrix" values="0 0 0 0 0 0 0 0 0 0 0 0 0 0 0 0 0 0 0.25 0"/>
<feBlend mode="normal" in2="BackgroundImageFix" result="effect1_dropShadow_12_4"/>
<feBlend mode="normal" in="SourceGraphic" in2="effect1_dropShadow_12_4" result="shape"/>
</filter>
<clipPath id="clip0_12_4">
<rect width="55" height="55" fill="white"/>
</clipPath>
</defs>
</svg>
