<svg width="40" height="40" viewBox="0 0 55 55" fill="none" xmlns="http://www.w3.org/2000/svg">
<g filter="url(#filter0_d_19_42)">
<path fill-rule="evenodd" clip-rule="evenodd" d="M26.0068 13C24.6695 13 23.5291 13.9669 23.3088 15.2852L23.0493 16.8485C23.0201 17.0235 22.8816 17.2277 22.6161 17.356C22.1164 17.5962 21.6357 17.8741 21.1782 18.1873C20.9361 18.355 20.6911 18.371 20.522 18.3083L19.0388 17.7512C18.4325 17.5241 17.7653 17.5195 17.1559 17.7382C16.5465 17.9569 16.0344 18.3848 15.7109 18.9456L14.3663 21.2746C14.0427 21.8351 13.9284 22.4923 14.0438 23.1291C14.1591 23.766 14.4967 24.3413 14.9963 24.7527L16.2213 25.7619C16.3599 25.8756 16.4693 26.0958 16.4459 26.389C16.4044 26.9419 16.4044 27.4971 16.4459 28.05C16.4678 28.3417 16.3599 28.5633 16.2228 28.6771L14.9963 29.6862C14.4967 30.0976 14.1591 30.673 14.0438 31.3098C13.9284 31.9467 14.0427 32.6039 14.3663 33.1644L15.7109 35.4933C16.0347 36.0539 16.5468 36.4815 17.1562 36.6999C17.7656 36.9184 18.4327 36.9135 19.0388 36.6863L20.5249 36.1292C20.6926 36.0665 20.9376 36.084 21.1811 36.2487C21.6361 36.5608 22.1159 36.8394 22.6176 37.08C22.883 37.2083 23.0216 37.4125 23.0507 37.5904L23.3103 39.1523C23.5305 40.4706 24.6709 41.4375 26.0082 41.4375H28.6974C30.0332 41.4375 31.1751 40.4706 31.3953 39.1523L31.6549 37.589C31.6841 37.414 31.8211 37.2098 32.088 37.08C32.5897 36.8394 33.0695 36.5608 33.5245 36.2487C33.768 36.0825 34.013 36.0665 34.1807 36.1292L35.6682 36.6863C36.2742 36.9126 36.9407 36.9168 37.5495 36.6982C38.1583 36.4795 38.6698 36.0521 38.9932 35.4919L40.3393 33.1629C40.6629 32.6024 40.7772 31.9452 40.6618 31.3084C40.5465 30.6715 40.2089 30.0962 39.7093 29.6848L38.4843 28.6756C38.3457 28.5619 38.2363 28.3417 38.2597 28.0485C38.3011 27.4956 38.3011 26.9404 38.2597 26.3875C38.2363 26.0958 38.3457 25.8742 38.4828 25.7604L39.7078 24.7512C40.7403 23.9025 41.0072 22.4325 40.3393 21.2731L38.9947 18.9442C38.6709 18.3836 38.1588 17.956 37.5494 17.7376C36.94 17.5191 36.2729 17.524 35.6668 17.7512L34.1793 18.3083C34.013 18.371 33.768 18.3535 33.5245 18.1873C33.0674 17.8742 32.5872 17.5963 32.088 17.356C31.8211 17.2292 31.6841 17.025 31.6549 16.8485L31.3938 15.2852C31.2875 14.6466 30.958 14.0664 30.4639 13.6479C29.9699 13.2294 29.3434 12.9998 28.6959 13H26.0082H26.0068ZM27.3513 32.6875C28.8017 32.6875 30.1927 32.1113 31.2183 31.0857C32.2439 30.0601 32.8201 28.6692 32.8201 27.2188C32.8201 25.7683 32.2439 24.3773 31.2183 23.3518C30.1927 22.3262 28.8017 21.75 27.3513 21.75C25.9009 21.75 24.5099 22.3262 23.4844 23.3518C22.4588 24.3773 21.8826 25.7683 21.8826 27.2188C21.8826 28.6692 22.4588 30.0601 23.4844 31.0857C24.5099 32.1113 25.9009 32.6875 27.3513 32.6875Z" fill="white"/>
</g>
<defs>
<filter id="filter0_d_19_42" x="10" y="13" width="34.7056" height="36.4375" filterUnits="userSpaceOnUse" color-interpolation-filters="sRGB">
<feFlood flood-opacity="0" result="BackgroundImageFix"/>
<feColorMatrix in="SourceAlpha" type="matrix" values="0 0 0 0 0 0 0 0 0 0 0 0 0 0 0 0 0 0 127 0" result="hardAlpha"/>
<feOffset dy="4"/>
<feGaussianBlur stdDeviation="2"/>
<feComposite in2="hardAlpha" operator="out"/>
<feColorMatrix type="matrix" values="0 0 0 0 0 0 0 0 0 0 0 0 0 0 0 0 0 0 0.25 0"/>
<feBlend mode="normal" in2="BackgroundImageFix" result="effect1_dropShadow_19_42"/>
<feBlend mode="normal" in="SourceGraphic" in2="effect1_dropShadow_19_42" result="shape"/>
</filter>
</defs>
</svg>
