<svg class="icon" width="40" height="40" viewBox="0 0 55 55" fill="none" xmlns="http://www.w3.org/2000/svg">
<g filter="url(#filter0_d_7_133)">
<path d="M41.8462 7H14.1538C12.5223 7.00178 10.9581 7.6507 9.80439 8.80439C8.6507 9.95807 8.00178 11.5223 8 13.1538V40.8462C8.00178 42.4777 8.6507 44.0419 9.80439 45.1956C10.9581 46.3493 12.5223 46.9982 14.1538 47H41.8462C43.4777 46.9982 45.0419 46.3493 46.1956 45.1956C47.3493 44.0419 47.9982 42.4777 48 40.8462V13.1538C47.9982 11.5223 47.3493 9.95807 46.1956 8.80439C45.0419 7.6507 43.4777 7.00178 41.8462 7ZM38.4087 20.2971L25.4856 35.6817C25.3438 35.8506 25.1674 35.987 24.9684 36.0817C24.7693 36.1764 24.5522 36.2273 24.3317 36.2308H24.3058C24.0901 36.2307 23.8769 36.1853 23.68 36.0975C23.483 36.0097 23.3067 35.8815 23.1625 35.7212L17.624 29.5673C17.4834 29.4181 17.374 29.2423 17.3022 29.0502C17.2305 28.8582 17.1978 28.6537 17.2063 28.4488C17.2147 28.244 17.2639 28.0428 17.3512 27.8573C17.4384 27.6717 17.5619 27.5055 17.7143 27.3683C17.8667 27.2312 18.045 27.1259 18.2387 27.0586C18.4324 26.9913 18.6376 26.9635 18.8422 26.9766C19.0468 26.9898 19.2467 27.0437 19.4302 27.1353C19.6137 27.2268 19.777 27.3541 19.9106 27.5096L24.2654 32.3481L36.0529 18.3183C36.3173 18.0126 36.6914 17.8232 37.0943 17.7911C37.4972 17.759 37.8965 17.8867 38.206 18.1467C38.5155 18.4067 38.7102 18.778 38.7482 19.1804C38.7861 19.5828 38.6641 19.9839 38.4087 20.2971Z" fill="white"/>
</g>
<defs>
<filter id="filter0_d_7_133" x="4" y="7" width="48" height="48" filterUnits="userSpaceOnUse" color-interpolation-filters="sRGB">
<feFlood flood-opacity="0" result="BackgroundImageFix"/>
<feColorMatrix in="SourceAlpha" type="matrix" values="0 0 0 0 0 0 0 0 0 0 0 0 0 0 0 0 0 0 127 0" result="hardAlpha"/>
<feOffset dy="4"/>
<feGaussianBlur stdDeviation="2"/>
<feComposite in2="hardAlpha" operator="out"/>
<feColorMatrix type="matrix" values="0 0 0 0 0 0 0 0 0 0 0 0 0 0 0 0 0 0 0.25 0"/>
<feBlend mode="normal" in2="BackgroundImageFix" result="effect1_dropShadow_7_133"/>
<feBlend mode="normal" in="SourceGraphic" in2="effect1_dropShadow_7_133" result="shape"/>
</filter>
</defs>
</svg>
