<svg width="20" height="20" viewBox="0 0 25 25" fill="none" xmlns="http://www.w3.org/2000/svg">
<path fill-rule="evenodd" clip-rule="evenodd" d="M1.5625 10.2417V12.1094C1.5625 13.1885 2.4375 14.0625 3.51562 14.0625H21.4844C22.5625 14.0625 23.4375 13.1875 23.4375 12.1094V10.2417C23.4375 9.49586 23.1707 8.77465 22.6854 8.20833L19.2635 4.21667C18.9702 3.8743 18.6062 3.59946 18.1966 3.41102C17.787 3.22259 17.3415 3.12501 16.8906 3.125H8.10937C7.65851 3.12501 7.21299 3.22259 6.80339 3.41102C6.39379 3.59946 6.02982 3.8743 5.73646 4.21667L2.31458 8.20833C1.82928 8.77465 1.56253 9.49586 1.5625 10.2417ZM8.10937 4.6875C7.88394 4.68751 7.66118 4.73629 7.45638 4.83051C7.25158 4.92473 7.0696 5.06215 6.92292 5.23333L4.04271 8.59375H7.33958C7.85403 8.59379 8.36051 8.72083 8.81407 8.9636C9.26763 9.20637 9.65424 9.55736 9.93958 9.98542L10.1104 10.2417C10.2531 10.4557 10.4464 10.6312 10.6732 10.7526C10.9 10.874 11.1532 10.9375 11.4104 10.9375H13.5896C13.8468 10.9375 14.1 10.874 14.3268 10.7526C14.5536 10.6312 14.7469 10.4557 14.8896 10.2417L15.0604 9.98542C15.3458 9.55736 15.7324 9.20637 16.1859 8.9636C16.6395 8.72083 17.146 8.59379 17.6604 8.59375H20.9573L18.0771 5.23333C17.9304 5.06215 17.7484 4.92473 17.5436 4.83051C17.3388 4.73629 17.1161 4.68751 16.8906 4.6875H8.10937Z" fill="white"/>
<path d="M2.93021 15.625C2.175 15.625 1.5625 16.2375 1.5625 16.9927V18.75C1.5625 19.5788 1.89174 20.3737 2.47779 20.9597C3.06384 21.5458 3.8587 21.875 4.6875 21.875H20.3125C21.1413 21.875 21.9362 21.5458 22.5222 20.9597C23.1083 20.3737 23.4375 19.5788 23.4375 18.75V16.9917C23.4375 16.2375 22.825 15.625 22.0698 15.625H17.6604C17.146 15.625 16.6395 15.7521 16.1859 15.9948C15.7324 16.2376 15.3458 16.5886 15.0604 17.0167L14.8896 17.2729C14.7469 17.4869 14.5536 17.6624 14.3268 17.7838C14.1 17.9052 13.8468 17.9687 13.5896 17.9687H11.4104C11.1532 17.9687 10.9 17.9052 10.6732 17.7838C10.4464 17.6624 10.2531 17.4869 10.1104 17.2729L9.93958 17.0167C9.65424 16.5886 9.26763 16.2376 8.81407 15.9948C8.36051 15.7521 7.85403 15.625 7.33958 15.625H2.93021Z" fill="white"/>
</svg>
