<svg width="20" height="20" viewBox="0 0 25 25" fill="none" xmlns="http://www.w3.org/2000/svg">
<path fill-rule="evenodd" clip-rule="evenodd" d="M5.70625 5.79062C5.80451 5.47117 6.00262 5.19164 6.27148 4.99309C6.54034 4.79454 6.86577 4.68743 7.2 4.6875H9.375C9.5822 4.6875 9.78091 4.60519 9.92743 4.45868C10.0739 4.31216 10.1562 4.11345 10.1562 3.90625C10.1562 3.69905 10.0739 3.50034 9.92743 3.35382C9.78091 3.20731 9.5822 3.125 9.375 3.125H7.2C6.53155 3.12487 5.88067 3.33908 5.34295 3.73618C4.80524 4.13328 4.40902 4.69234 4.2125 5.33125L1.70104 13.4958C1.60934 13.7935 1.56264 14.1031 1.5625 14.4146V18.75C1.5625 19.5788 1.89174 20.3737 2.47779 20.9597C3.06384 21.5458 3.8587 21.875 4.6875 21.875H20.3125C21.1413 21.875 21.9362 21.5458 22.5222 20.9597C23.1083 20.3737 23.4375 19.5788 23.4375 18.75V14.4146C23.4375 14.1031 23.3906 13.7937 23.299 13.4958L20.7865 5.33125C20.59 4.69251 20.1939 4.13358 19.6564 3.73649C19.1189 3.33941 18.4683 3.12509 17.8 3.125H15.625C15.4178 3.125 15.2191 3.20731 15.0726 3.35382C14.9261 3.50034 14.8437 3.69905 14.8437 3.90625C14.8437 4.11345 14.9261 4.31216 15.0726 4.45868C15.2191 4.60519 15.4178 4.6875 15.625 4.6875H17.8C18.1342 4.68743 18.4597 4.79454 18.7285 4.99309C18.9974 5.19164 19.1955 5.47117 19.2937 5.79062L21.599 13.2812H18.6354C18.055 13.2811 17.486 13.4426 16.9921 13.7476C16.4983 14.0527 16.0992 14.4892 15.8396 15.0083L15.5729 15.5427C15.4431 15.8023 15.2435 16.0205 14.9966 16.1731C14.7497 16.3256 14.4652 16.4063 14.175 16.4062H10.8229C10.5326 16.4062 10.248 16.3253 10.0011 16.1726C9.75417 16.0199 9.55468 15.8014 9.425 15.5417L9.15833 15.0083C8.89868 14.4892 8.49959 14.0527 8.00577 13.7476C7.51195 13.4426 6.94294 13.2811 6.3625 13.2812H3.40104L5.70625 5.79062Z" fill="white"/>
<path fill-rule="evenodd" clip-rule="evenodd" d="M12.5 2.34375C12.7072 2.34375 12.9059 2.42606 13.0524 2.57257C13.1989 2.71909 13.2812 2.9178 13.2812 3.125V9.83333L15.0729 8.04167C15.1444 7.96491 15.2307 7.90334 15.3265 7.86064C15.4223 7.81794 15.5258 7.79498 15.6307 7.79313C15.7356 7.79128 15.8398 7.81058 15.9371 7.84987C16.0343 7.88916 16.1227 7.94765 16.1969 8.02183C16.2711 8.09602 16.3296 8.18439 16.3689 8.28167C16.4082 8.37895 16.4275 8.48314 16.4256 8.58804C16.4237 8.69294 16.4008 8.79639 16.3581 8.89223C16.3154 8.98806 16.2538 9.07431 16.1771 9.14583L13.0521 12.2708C12.9056 12.4171 12.707 12.4993 12.5 12.4993C12.293 12.4993 12.0944 12.4171 11.9479 12.2708L8.8229 9.14583C8.6849 8.99773 8.60977 8.80185 8.61334 8.59946C8.61691 8.39706 8.69891 8.20395 8.84204 8.06081C8.98518 7.91767 9.17829 7.83568 9.38069 7.83211C9.58309 7.82854 9.77897 7.90367 9.92707 8.04167L11.7187 9.83333V3.125C11.7187 2.9178 11.801 2.71909 11.9476 2.57257C12.0941 2.42606 12.2928 2.34375 12.5 2.34375Z" fill="white"/>
</svg>
