<svg width="20" height="20" viewBox="0 0 20 20" fill="none" xmlns="http://www.w3.org/2000/svg">
<path d="M18.2422 1.76563C18.0803 1.60182 17.8873 1.47186 17.6747 1.38334C17.462 1.29482 17.2339 1.24949 17.0035 1.25H12.2016C11.8866 1.25059 11.5845 1.37537 11.3609 1.59727L1.76134 11.1949C1.43378 11.5232 1.24982 11.9679 1.24982 12.4316C1.24982 12.8954 1.43378 13.3401 1.76134 13.6684L6.33165 18.2387C6.65997 18.5664 7.10489 18.7504 7.56876 18.7504C8.03263 18.7504 8.47756 18.5664 8.80587 18.2387L18.4016 8.64493C18.6239 8.42171 18.7491 8.11974 18.75 7.80469V3C18.7514 2.77086 18.7073 2.54373 18.6201 2.33181C18.5329 2.1199 18.4045 1.92744 18.2422 1.76563ZM15 6.25C14.7528 6.25 14.5111 6.17669 14.3055 6.03934C14.1 5.90199 13.9398 5.70677 13.8452 5.47836C13.7506 5.24995 13.7258 4.99862 13.774 4.75614C13.8223 4.51367 13.9413 4.29094 14.1161 4.11612C14.2909 3.94131 14.5137 3.82225 14.7561 3.77402C14.9986 3.72579 15.25 3.75055 15.4784 3.84515C15.7068 3.93976 15.902 4.09998 16.0393 4.30554C16.1767 4.5111 16.25 4.75278 16.25 5C16.25 5.33152 16.1183 5.64947 15.8839 5.88389C15.6495 6.11831 15.3315 6.25 15 6.25Z" fill="white"/>
</svg>
