<svg width="20" height="20" viewBox="0 0 25 25" fill="none" xmlns="http://www.w3.org/2000/svg">
<path d="M12.5 5.76172C12.2151 5.76172 11.9419 5.64854 11.7404 5.44709C11.539 5.24563 11.4258 4.9724 11.4258 4.6875V2.34375C11.4258 2.05885 11.539 1.78562 11.7404 1.58416C11.9419 1.38271 12.2151 1.26953 12.5 1.26953C12.7849 1.26953 13.0581 1.38271 13.2596 1.58416C13.461 1.78562 13.5742 2.05885 13.5742 2.34375V4.6875C13.5742 4.9724 13.461 5.24563 13.2596 5.44709C13.0581 5.64854 12.7849 5.76172 12.5 5.76172ZM12.5 23.7305C12.2151 23.7305 11.9419 23.6173 11.7404 23.4158C11.539 23.2144 11.4258 22.9412 11.4258 22.6562V20.3125C11.4258 20.0276 11.539 19.7544 11.7404 19.5529C11.9419 19.3515 12.2151 19.2383 12.5 19.2383C12.7849 19.2383 13.0581 19.3515 13.2596 19.5529C13.461 19.7544 13.5742 20.0276 13.5742 20.3125V22.6562C13.5742 22.9412 13.461 23.2144 13.2596 23.4158C13.0581 23.6173 12.7849 23.7305 12.5 23.7305ZM18.0244 8.0498C17.812 8.04978 17.6044 7.98678 17.4278 7.86877C17.2511 7.75076 17.1135 7.58304 17.0322 7.38681C16.9508 7.19058 16.9295 6.97465 16.9709 6.76631C17.0123 6.55796 17.1145 6.36657 17.2646 6.21631L18.9219 4.55908C19.1242 4.36201 19.396 4.25255 19.6785 4.25441C19.9609 4.25627 20.2313 4.3693 20.431 4.56902C20.6307 4.76874 20.7437 5.03909 20.7456 5.32153C20.7474 5.60398 20.638 5.87579 20.4409 6.07813L18.7837 7.73535C18.6841 7.83518 18.5657 7.91436 18.4354 7.96832C18.3051 8.02228 18.1654 8.04997 18.0244 8.0498ZM5.31836 20.7559C5.10589 20.7558 4.8982 20.6928 4.72155 20.5747C4.54491 20.4567 4.40724 20.2889 4.32597 20.0925C4.24469 19.8962 4.22346 19.6802 4.26496 19.4719C4.30645 19.2635 4.40881 19.0721 4.55908 18.9219L6.21631 17.2646C6.31557 17.1627 6.43408 17.0816 6.56497 17.0258C6.69585 16.9701 6.8365 16.9409 6.97876 16.94C7.12102 16.939 7.26204 16.9664 7.39365 17.0204C7.52526 17.0744 7.64483 17.154 7.74542 17.2546C7.84601 17.3552 7.92562 17.4747 7.97963 17.6064C8.03364 17.738 8.06097 17.879 8.06003 18.0212C8.05909 18.1635 8.02991 18.3041 7.97417 18.435C7.91844 18.5659 7.83726 18.6844 7.73535 18.7837L6.07813 20.4409C5.97848 20.5409 5.86006 20.6202 5.72967 20.6742C5.59928 20.7283 5.4595 20.756 5.31836 20.7559ZM22.6562 13.5742H20.3125C20.0276 13.5742 19.7544 13.461 19.5529 13.2596C19.3515 13.0581 19.2383 12.7849 19.2383 12.5C19.2383 12.2151 19.3515 11.9419 19.5529 11.7404C19.7544 11.539 20.0276 11.4258 20.3125 11.4258H22.6562C22.9412 11.4258 23.2144 11.539 23.4158 11.7404C23.6173 11.9419 23.7305 12.2151 23.7305 12.5C23.7305 12.7849 23.6173 13.0581 23.4158 13.2596C23.2144 13.461 22.9412 13.5742 22.6562 13.5742ZM4.6875 13.5742H2.34375C2.05885 13.5742 1.78562 13.461 1.58416 13.2596C1.38271 13.0581 1.26953 12.7849 1.26953 12.5C1.26953 12.2151 1.38271 11.9419 1.58416 11.7404C1.78562 11.539 2.05885 11.4258 2.34375 11.4258H4.6875C4.9724 11.4258 5.24563 11.539 5.44709 11.7404C5.64854 11.9419 5.76172 12.2151 5.76172 12.5C5.76172 12.7849 5.64854 13.0581 5.44709 13.2596C5.24563 13.461 4.9724 13.5742 4.6875 13.5742ZM19.6816 20.7559C19.5405 20.756 19.4007 20.7283 19.2703 20.6742C19.1399 20.6202 19.0215 20.5409 18.9219 20.4409L17.2646 18.7837C17.0676 18.5814 16.9581 18.3095 16.96 18.0271C16.9618 17.7447 17.0749 17.4743 17.2746 17.2746C17.4743 17.0749 17.7447 16.9618 18.0271 16.96C18.3095 16.9581 18.5814 17.0676 18.7837 17.2646L20.4409 18.9219C20.5912 19.0721 20.6935 19.2635 20.735 19.4719C20.7765 19.6802 20.7553 19.8962 20.674 20.0925C20.5928 20.2889 20.4551 20.4567 20.2784 20.5747C20.1018 20.6928 19.8941 20.7558 19.6816 20.7559ZM6.97559 8.0498C6.83454 8.05008 6.69483 8.02244 6.56452 7.96847C6.4342 7.9145 6.31586 7.83527 6.21631 7.73535L4.55908 6.07813C4.36201 5.87579 4.25255 5.60398 4.25441 5.32153C4.25627 5.03909 4.3693 4.76874 4.56902 4.56902C4.76874 4.3693 5.03909 4.25627 5.32153 4.25441C5.60398 4.25255 5.87579 4.36201 6.07813 4.55908L7.73535 6.21631C7.88549 6.36657 7.98771 6.55796 8.02909 6.76631C8.07047 6.97465 8.04916 7.19058 7.96784 7.38681C7.88653 7.58304 7.74886 7.75076 7.57225 7.86877C7.39563 7.98678 7.188 8.04978 6.97559 8.0498ZM12.5 17.4805C11.515 17.4805 10.552 17.1884 9.733 16.6411C8.91397 16.0938 8.27561 15.316 7.89865 14.4059C7.52169 13.4959 7.42306 12.4945 7.61523 11.5284C7.8074 10.5622 8.28175 9.67481 8.97828 8.97828C9.67481 8.28175 10.5622 7.8074 11.5284 7.61523C12.4945 7.42306 13.4959 7.52169 14.4059 7.89865C15.316 8.27561 16.0938 8.91397 16.6411 9.733C17.1884 10.552 17.4805 11.515 17.4805 12.5C17.4789 13.8204 16.9537 15.0863 16.02 16.02C15.0863 16.9537 13.8204 17.4789 12.5 17.4805Z" fill="white"/>
</svg>
