<svg width="20" height="20" viewBox="0 0 25 25" fill="none" xmlns="http://www.w3.org/2000/svg">
<path d="M19.75 2.56243H18.9688V1.80315C18.9688 1.38274 18.6455 1.0219 18.2251 1.00091C18.1195 0.995816 18.0139 1.01223 17.9148 1.04914C17.8157 1.08606 17.7251 1.14271 17.6486 1.21566C17.572 1.28862 17.511 1.37636 17.4694 1.47356C17.4277 1.57077 17.4063 1.67542 17.4062 1.78118V2.56243H6.46875V1.80315C6.46875 1.38274 6.14551 1.0219 5.7251 1.00091C5.61947 0.995816 5.5139 1.01223 5.4148 1.04914C5.31569 1.08606 5.22512 1.14271 5.14856 1.21566C5.07199 1.28862 5.01104 1.37636 4.96939 1.47356C4.92774 1.57077 4.90626 1.67542 4.90625 1.78118V2.56243H4.125C3.2962 2.56243 2.50134 2.89167 1.91529 3.47772C1.32924 4.06377 1 4.85863 1 5.68743V6.27337C1 6.32517 1.02058 6.37484 1.05721 6.41147C1.09383 6.4481 1.14351 6.46868 1.19531 6.46868H22.6797C22.7315 6.46868 22.7812 6.4481 22.8178 6.41147C22.8544 6.37484 22.875 6.32517 22.875 6.27337V5.68743C22.875 4.85863 22.5458 4.06377 21.9597 3.47772C21.3737 2.89167 20.5788 2.56243 19.75 2.56243ZM22.6797 8.03118H1.19531C1.14351 8.03118 1.09383 8.05176 1.05721 8.08838C1.02058 8.12501 1 8.17469 1 8.22649V19.7499C1 20.5787 1.32924 21.3736 1.91529 21.9596C2.50134 22.5457 3.2962 22.8749 4.125 22.8749H19.75C20.5788 22.8749 21.3737 22.5457 21.9597 21.9596C22.5458 21.3736 22.875 20.5787 22.875 19.7499V8.22649C22.875 8.17469 22.8544 8.12501 22.8178 8.08838C22.7812 8.05176 22.7315 8.03118 22.6797 8.03118ZM11.1357 19.0224C10.5415 19.4916 9.73193 19.7499 8.85547 19.7499C7.49463 19.7499 6.48828 18.8632 6.04004 18.1044C5.9345 17.926 5.90417 17.7129 5.95572 17.5121C6.00727 17.3113 6.13649 17.1392 6.31494 17.0336C6.49339 16.9281 6.70646 16.8977 6.90728 16.9493C7.10809 17.0009 7.2802 17.1301 7.38574 17.3085C7.43848 17.3984 7.93018 18.1874 8.85547 18.1874C9.66895 18.1874 10.6191 17.8315 10.6191 16.829C10.6191 16.5239 10.5596 16.099 10.2773 15.8095C9.86035 15.3827 9.1665 15.1908 8.80713 15.1908C8.59993 15.1908 8.40121 15.1085 8.2547 14.962C8.10819 14.8155 8.02588 14.6168 8.02588 14.4096C8.02588 14.2024 8.10819 14.0037 8.2547 13.8572C8.40121 13.7107 8.59993 13.6283 8.80713 13.6283C9.04395 13.6283 9.65723 13.5014 10.0415 13.1083C10.1455 13.0061 10.2275 12.8837 10.2827 12.7487C10.3378 12.6138 10.3649 12.469 10.3623 12.3232C10.3623 11.1889 8.96436 11.1562 8.80518 11.1562C7.9585 11.1562 7.64307 11.6742 7.62988 11.6962C7.57913 11.7872 7.51068 11.8671 7.42857 11.9313C7.34646 11.9955 7.25234 12.0425 7.15176 12.0698C7.05118 12.097 6.94617 12.1038 6.84291 12.0899C6.73965 12.0759 6.64023 12.0414 6.55049 11.9885C6.46076 11.9355 6.38252 11.8651 6.32039 11.7815C6.25827 11.6978 6.2135 11.6026 6.18873 11.5014C6.16396 11.4002 6.15969 11.295 6.17616 11.1921C6.19264 11.0892 6.22953 10.9907 6.28467 10.9023C6.65771 10.2675 7.51611 9.59368 8.80518 9.59368C9.60791 9.59368 10.356 9.82659 10.9111 10.249C11.5649 10.747 11.9248 11.4833 11.9248 12.3232C11.927 12.6714 11.8602 13.0165 11.7283 13.3388C11.5964 13.661 11.402 13.9539 11.1562 14.2006C11.1001 14.2582 11.041 14.3119 10.981 14.3642C11.1276 14.4701 11.2652 14.5882 11.3921 14.7172C11.9077 15.2446 12.1802 15.9745 12.1802 16.829C12.1816 17.7109 11.8101 18.4897 11.1357 19.0224ZM17.4062 18.7734C17.4062 18.9806 17.3239 19.1793 17.1774 19.3258C17.0309 19.4723 16.8322 19.5546 16.625 19.5546C16.4178 19.5546 16.2191 19.4723 16.0726 19.3258C15.9261 19.1793 15.8438 18.9806 15.8438 18.7734V11.9516L14.7446 12.7616C14.662 12.8226 14.5683 12.8666 14.4686 12.8913C14.369 12.916 14.2655 12.9208 14.1641 12.9054C14.0626 12.8901 13.9651 12.855 13.8772 12.802C13.7894 12.749 13.7128 12.6792 13.6519 12.5966C13.5909 12.514 13.5469 12.4202 13.5222 12.3206C13.4975 12.221 13.4927 12.1175 13.5081 12.016C13.5234 11.9146 13.5585 11.8171 13.6115 11.7292C13.6645 11.6413 13.7343 11.5647 13.8169 11.5038L15.937 9.94133C16.0713 9.8424 16.2336 9.78902 16.4004 9.78899H16.625C16.8322 9.78899 17.0309 9.8713 17.1774 10.0178C17.3239 10.1643 17.4062 10.363 17.4062 10.5702V18.7734Z" fill="white"/>
</svg>
