<svg width="15" height="15" viewBox="0 0 17 17" fill="none" xmlns="http://www.w3.org/2000/svg">
<path d="M9.82813 15.4062C9.74292 15.4062 9.65827 15.3924 9.57745 15.3654L6.91622 14.4799C6.75795 14.4267 6.62048 14.325 6.52332 14.1892C6.42616 14.0534 6.37427 13.8905 6.37501 13.7235V9.76537C6.37428 9.76376 6.37327 9.7623 6.37202 9.76106L0.77231 3.23863C0.648143 3.09398 0.568093 2.91674 0.541663 2.72794C0.515234 2.53915 0.543535 2.34673 0.623207 2.17355C0.702879 2.00036 0.830576 1.85367 0.991136 1.7509C1.1517 1.64812 1.33837 1.59358 1.52901 1.59375H15.4727C15.6633 1.59358 15.85 1.64812 16.0105 1.7509C16.1711 1.85367 16.2988 2.00036 16.3785 2.17355C16.4581 2.34673 16.4864 2.53915 16.46 2.72794C16.4336 2.91674 16.3535 3.09398 16.2294 3.23863L10.628 9.76172C10.6269 9.76305 10.6259 9.7645 10.625 9.76604V14.6094C10.6253 14.7141 10.6049 14.8179 10.565 14.9147C10.525 15.0115 10.4663 15.0995 10.3923 15.1735C10.3182 15.2476 10.2303 15.3063 10.1334 15.3462C10.0366 15.3862 9.93286 15.4066 9.82813 15.4062Z" fill="white"/>
</svg>
