<svg width="17" height="17" viewBox="0 0 20 20" fill="none" xmlns="http://www.w3.org/2000/svg">
<path d="M2.5 5.625H11.3574C11.4867 5.99043 11.7262 6.3068 12.0427 6.53056C12.3592 6.75432 12.7374 6.87447 13.125 6.87447C13.5126 6.87447 13.8908 6.75432 14.2073 6.53056C14.5238 6.3068 14.7633 5.99043 14.8926 5.625H17.5C17.6658 5.625 17.8247 5.55915 17.9419 5.44194C18.0592 5.32473 18.125 5.16576 18.125 5C18.125 4.83424 18.0592 4.67527 17.9419 4.55806C17.8247 4.44085 17.6658 4.375 17.5 4.375H14.8926C14.7633 4.00957 14.5238 3.6932 14.2073 3.46944C13.8908 3.24568 13.5126 3.12553 13.125 3.12553C12.7374 3.12553 12.3592 3.24568 12.0427 3.46944C11.7262 3.6932 11.4867 4.00957 11.3574 4.375H2.5C2.33424 4.375 2.17527 4.44085 2.05806 4.55806C1.94085 4.67527 1.875 4.83424 1.875 5C1.875 5.16576 1.94085 5.32473 2.05806 5.44194C2.17527 5.55915 2.33424 5.625 2.5 5.625ZM17.5 14.375H14.8926C14.7633 14.0096 14.5238 13.6932 14.2073 13.4694C13.8908 13.2457 13.5126 13.1255 13.125 13.1255C12.7374 13.1255 12.3592 13.2457 12.0427 13.4694C11.7262 13.6932 11.4867 14.0096 11.3574 14.375H2.5C2.33424 14.375 2.17527 14.4408 2.05806 14.5581C1.94085 14.6753 1.875 14.8342 1.875 15C1.875 15.1658 1.94085 15.3247 2.05806 15.4419C2.17527 15.5592 2.33424 15.625 2.5 15.625H11.3574C11.4867 15.9904 11.7262 16.3068 12.0427 16.5306C12.3592 16.7543 12.7374 16.8745 13.125 16.8745C13.5126 16.8745 13.8908 16.7543 14.2073 16.5306C14.5238 16.3068 14.7633 15.9904 14.8926 15.625H17.5C17.6658 15.625 17.8247 15.5592 17.9419 15.4419C18.0592 15.3247 18.125 15.1658 18.125 15C18.125 14.8342 18.0592 14.6753 17.9419 14.5581C17.8247 14.4408 17.6658 14.375 17.5 14.375ZM17.5 9.375H8.64258C8.51325 9.00957 8.27384 8.6932 7.9573 8.46944C7.64076 8.24568 7.26264 8.12553 6.875 8.12553C6.48736 8.12553 6.10924 8.24568 5.7927 8.46944C5.47616 8.6932 5.23675 9.00957 5.10742 9.375H2.5C2.33424 9.375 2.17527 9.44085 2.05806 9.55806C1.94085 9.67527 1.875 9.83424 1.875 10C1.875 10.1658 1.94085 10.3247 2.05806 10.4419C2.17527 10.5592 2.33424 10.625 2.5 10.625H5.10742C5.23675 10.9904 5.47616 11.3068 5.7927 11.5306C6.10924 11.7543 6.48736 11.8745 6.875 11.8745C7.26264 11.8745 7.64076 11.7543 7.9573 11.5306C8.27384 11.3068 8.51325 10.9904 8.64258 10.625H17.5C17.6658 10.625 17.8247 10.5592 17.9419 10.4419C18.0592 10.3247 18.125 10.1658 18.125 10C18.125 9.83424 18.0592 9.67527 17.9419 9.55806C17.8247 9.44085 17.6658 9.375 17.5 9.375Z" fill="white"/>
</svg>
